<?xml version="1.0" encoding="UTF-8" standalone="no"?>
<!-- Created with Inkscape (http://www.inkscape.org/) -->
<svg xmlns:dc="http://purl.org/dc/elements/1.1/" xmlns:cc="http://creativecommons.org/ns#" xmlns:rdf="http://www.w3.org/1999/02/22-rdf-syntax-ns#" xmlns:svg="http://www.w3.org/2000/svg" xmlns="http://www.w3.org/2000/svg" xmlns:xlink="http://www.w3.org/1999/xlink" xmlns:sodipodi="http://sodipodi.sourceforge.net/DTD/sodipodi-0.dtd" xmlns:inkscape="http://www.inkscape.org/namespaces/inkscape" width="314.61047" height="750.42065" id="svg6306" version="1.1" inkscape:version="0.48.0 r9654" sodipodi:docname="New document 12">
  <defs id="defs6308">
    <clipPath clipPathUnits="userSpaceOnUse" id="clipPath5883">
      <path style="fill:none;stroke:#000000;stroke-width:3;stroke-miterlimit:4;stroke-opacity:1;stroke-dasharray:none" d="m 1285.125,410.26843 c -9.7188,0 -17.5625,7.81243 -17.5625,17.53125 l 0,102.5625 c 0,0.0319 -2e-4,0.0619 0,0.0937 -9.43,5.87376 -15.7187,16.32234 -15.7187,28.25 0,18.37643 14.9048,33.28125 33.2812,33.28125 18.3764,0 33.2812,-14.90482 33.2812,-33.28125 0,-11.93724 -6.3073,-22.3789 -15.75,-28.25 2e-4,-0.0318 0,-0.0619 0,-0.0937 l 0,-102.5625 c 0,-9.71882 -7.8124,-17.53125 -17.5312,-17.53125 z" id="path5885" inkscape:connector-curvature="0"/>
    </clipPath>
    <linearGradient inkscape:collect="always" xlink:href="#linearGradient5851-2" id="linearGradient6243" gradientUnits="userSpaceOnUse" x1="1286.9521" y1="489.11105" x2="1287.6447" y2="523.94873"/>
    <linearGradient id="linearGradient5851-2">
      <stop id="stop5853-2" offset="0" style="stop-color:#ffffff;stop-opacity:1"/>
      <stop id="stop5855-8" offset="1" style="stop-color:#ffffff;stop-opacity:0"/>
    </linearGradient>
    <filter color-interpolation-filters="sRGB" inkscape:collect="always" id="filter5845-7">
      <feGaussianBlur inkscape:collect="always" stdDeviation="1.1170209" id="feGaussianBlur5847-3"/>
    </filter>
    <filter color-interpolation-filters="sRGB" inkscape:collect="always" id="filter5911-5">
      <feGaussianBlur inkscape:collect="always" stdDeviation="2.1597826" id="feGaussianBlur5913-6"/>
    </filter>
    <linearGradient inkscape:collect="always" xlink:href="#linearGradient5919-5" id="linearGradient6245" gradientUnits="userSpaceOnUse" x1="1285.63" y1="417.89465" x2="1285.63" y2="480.37146"/>
    <linearGradient inkscape:collect="always" id="linearGradient5919-5">
      <stop style="stop-color:#ffffff;stop-opacity:1;" offset="0" id="stop5921-9"/>
      <stop style="stop-color:#ffffff;stop-opacity:0;" offset="1" id="stop5923-5"/>
    </linearGradient>
    <filter color-interpolation-filters="sRGB" inkscape:collect="always" id="filter5915-7" x="-0.12737632" width="1.2547526" y="-0.01784499" height="1.0356899">
      <feGaussianBlur inkscape:collect="always" stdDeviation="0.83954444" id="feGaussianBlur5917-2"/>
    </filter>
    <linearGradient inkscape:collect="always" xlink:href="#linearGradient5927-4" id="linearGradient6247" gradientUnits="userSpaceOnUse" x1="1282.1703" y1="387.63864" x2="1282.1703" y2="481.15173"/>
    <linearGradient id="linearGradient5927-4">
      <stop style="stop-color:#000000;stop-opacity:0.42477876" offset="0" id="stop5929-0"/>
      <stop style="stop-color:#000000;stop-opacity:0;" offset="1" id="stop5931-5"/>
    </linearGradient>
    <filter color-interpolation-filters="sRGB" inkscape:collect="always" id="filter5825-4">
      <feGaussianBlur inkscape:collect="always" stdDeviation="1.47038" id="feGaussianBlur5827-1"/>
    </filter>
    <filter color-interpolation-filters="sRGB" inkscape:collect="always" id="filter6165" x="-0.19152173" width="1.3830435" y="-0.20748188" height="1.4149638">
      <feGaussianBlur inkscape:collect="always" stdDeviation="1.6598004" id="feGaussianBlur6167"/>
    </filter>
    <filter inkscape:collect="always" id="filter6999" color-interpolation-filters="sRGB">
      <feGaussianBlur inkscape:collect="always" stdDeviation="10.350888" id="feGaussianBlur7001"/>
    </filter>
    <linearGradient inkscape:collect="always" xlink:href="#linearGradient5851-2" id="linearGradient7003" gradientUnits="userSpaceOnUse" x1="1286.9521" y1="489.11105" x2="1287.6447" y2="523.94873"/>
    <linearGradient inkscape:collect="always" xlink:href="#linearGradient5919-5" id="linearGradient7005" gradientUnits="userSpaceOnUse" x1="1285.63" y1="417.89465" x2="1285.63" y2="480.37146"/>
    <linearGradient inkscape:collect="always" xlink:href="#linearGradient5927-4" id="linearGradient7007" gradientUnits="userSpaceOnUse" x1="1282.1703" y1="387.63864" x2="1282.1703" y2="481.15173"/>
    <linearGradient inkscape:collect="always" xlink:href="#linearGradient5851-2" id="linearGradient7035" gradientUnits="userSpaceOnUse" x1="1286.9521" y1="489.11105" x2="1287.6447" y2="523.94873"/>
    <linearGradient inkscape:collect="always" xlink:href="#linearGradient5919-5" id="linearGradient7037" gradientUnits="userSpaceOnUse" x1="1285.63" y1="417.89465" x2="1285.63" y2="480.37146"/>
    <linearGradient inkscape:collect="always" xlink:href="#linearGradient5927-4" id="linearGradient7039" gradientUnits="userSpaceOnUse" x1="1282.1703" y1="387.63864" x2="1282.1703" y2="481.15173"/>
  </defs>
  <sodipodi:namedview id="base" pagecolor="#ffffff" bordercolor="#666666" borderopacity="1.0" inkscape:pageopacity="0.0" inkscape:pageshadow="2" inkscape:zoom="0.35" inkscape:cx="82.832647" inkscape:cy="287.61873" inkscape:document-units="px" inkscape:current-layer="layer1" showgrid="false" fit-margin-top="0" fit-margin-left="0" fit-margin-right="0" fit-margin-bottom="0" inkscape:window-width="1440" inkscape:window-height="850" inkscape:window-x="-8" inkscape:window-y="-8" inkscape:window-maximized="1"/>
  <g inkscape:label="Layer 1" inkscape:groupmode="layer" id="layer1" transform="translate(-260.73878,-123.84599)">
    <g id="g7009">
      <path id="path6241-2" d="m 422.85714,152.44274 c -37.27644,0 -67.36094,29.96456 -67.36094,67.24108 l 0,393.37828 c 0,0.12235 -7.6e-4,0.23742 0,0.35939 -36.16874,22.52879 -60.28904,62.6043 -60.28904,108.35282 0,70.48276 57.16733,127.65019 127.64998,127.65019 70.48265,0 127.64998,-57.16743 127.64998,-127.65019 0,-45.78526 -24.19164,-85.83423 -60.40909,-108.35282 7.6e-4,-0.12197 0,-0.23742 0,-0.35939 l 0,-393.37828 c 0,-37.27652 -29.96445,-67.24108 -67.24089,-67.24108 z" style="fill:#000000;stroke:none;display:inline;filter:url(#filter6999)" inkscape:connector-curvature="0"/>
      <g id="g6197" transform="matrix(3.8354982,0,0,3.8354982,-4528.3755,-1436.5623)" style="display:inline">
        <g clip-path="url(#clipPath5883)" id="g6199">
          <rect style="fill:#80e5ff;fill-opacity:1;display:inline" id="rect6201" width="81.411339" height="80.272392" x="-1324.9038" y="-593.42133" transform="scale(-1,-1)"/>
          <rect y="-517.36328" x="-1324.9038" height="56.746334" width="81.411339" id="rect6203" style="fill:#00b2ff;fill-opacity:1;display:inline" transform="scale(-1,-1)"/>
          <rect style="fill:#0066ff;fill-opacity:1;display:inline" id="rect6205" width="81.411339" height="56.74633" x="-1324.9038" y="-465.0394" transform="scale(-1,-1)"/>
        </g>
        <g id="g6207" style="display:inline" transform="translate(-2.1644592e-5,2.7993767e-6)">
          <path sodipodi:type="arc" style="fill:url(#linearGradient7035);fill-opacity:1;stroke:none;filter:url(#filter5845-7)" id="path6209" sodipodi:cx="1286.4832" sodipodi:cy="500.35251" sodipodi:rx="23.182335" sodipodi:ry="19.636801" d="m 1309.6655,500.35251 c 0,10.8451 -10.3791,19.6368 -23.1823,19.6368 -12.8033,0 -23.1824,-8.7917 -23.1824,-19.6368 0,-10.84511 10.3791,-19.6368 23.1824,-19.6368 12.8032,0 23.1823,8.79169 23.1823,19.6368 z" transform="matrix(1.1070159,0,0,0.75196566,-139.16408,168.49686)"/>
          <path style="opacity:0.38938054;fill:#1a1a1a;fill-opacity:1;stroke:none;filter:url(#filter5911-5)" d="m 1280.5,476.53125 c -0.4735,0.0675 -0.9398,0.16145 -1.4062,0.25 0.4729,-0.0933 0.9252,-0.17913 1.4062,-0.25 z m -1.4062,0.25 c -14.4038,2.73461 -25.2813,15.36293 -25.2813,30.5625 0,17.19673 13.9283,31.125 31.125,31.125 17.1967,0 31.125,-13.92827 31.125,-31.125 0,-15.19957 -10.8775,-27.82789 -25.2813,-30.5625 13.2429,2.6131 23.2188,13.89508 23.2188,27.4375 0,15.47706 -13.0122,28.03125 -29.0625,28.03125 -16.0503,0 -29.0625,-12.55419 -29.0625,-28.03125 0,-13.54242 9.9759,-24.8244 23.2188,-27.4375 z m 11.6874,0 c -0.4664,-0.0885 -0.9327,-0.1825 -1.4062,-0.25 0.481,0.0709 0.9333,0.15667 1.4062,0.25 z" transform="translate(0,52.362183)" id="path6211" inkscape:connector-curvature="0"/>
          <rect style="opacity:0.56637166;fill:url(#linearGradient7037);fill-opacity:1;stroke:none;filter:url(#filter5915-7)" id="rect6213" width="15.818534" height="112.91161" x="1277.5378" y="414.24524" ry="7.9092669"/>
          <path style="fill:url(#linearGradient7039);fill-opacity:1;stroke:none;filter:url(#filter5825-4)" d="m 1285.125,358 c -10.2744,0 -18.5625,8.25684 -18.5625,18.53125 l 0,94.90625 c 0,10.27441 8.2881,18.5625 18.5625,18.5625 10.2744,0 18.5312,-8.28809 18.5312,-18.5625 l 0,-94.90625 C 1303.6562,366.25684 1295.3994,358 1285.125,358 z m -2.1875,1.90625 4.375,0 c 4.6781,0 8.4375,3.75942 8.4375,8.4375 l 0,103.65625 c 0,4.67808 -3.7594,8.4375 -8.4375,8.4375 l -4.375,0 c -4.6781,0 -8.4375,-3.75942 -8.4375,-8.4375 l 0,-103.65625 c 0,-4.67808 3.7594,-8.4375 8.4375,-8.4375 z" id="path6215" transform="matrix(1,0,0,0.89550532,0,89.402525)" inkscape:connector-curvature="0"/>
        </g>
        <path style="fill:#ffffff;stroke:#ffffff;stroke-width:1.60206902;stroke-linecap:butt;stroke-linejoin:miter;stroke-miterlimit:4;stroke-opacity:1;stroke-dasharray:none" d="m 1269.4718,428.52746 27.6641,0" id="path6217" inkscape:connector-curvature="0"/>
        <path style="fill:#ffffff;stroke:#ffffff;stroke-width:1.60206902;stroke-linecap:butt;stroke-linejoin:miter;stroke-miterlimit:4;stroke-opacity:1;stroke-dasharray:none" d="m 1269.4718,517.59434 27.6641,0" id="path6219" inkscape:connector-curvature="0"/>
        <path style="fill:#ffffff;stroke:#ffffff;stroke-width:1.60206902;stroke-linecap:butt;stroke-linejoin:miter;stroke-miterlimit:4;stroke-opacity:1;stroke-dasharray:none" d="m 1269.4718,473.06089 27.6641,0" id="path6221" inkscape:connector-curvature="0"/>
        <path style="fill:#ffffff;stroke:#ffffff;stroke-width:1.60206902;stroke-linecap:butt;stroke-linejoin:miter;stroke-miterlimit:4;stroke-opacity:1;stroke-dasharray:none" d="m 1269.4718,464.15421 9.2214,0" id="path6223" inkscape:connector-curvature="0"/>
        <path style="fill:#ffffff;stroke:#ffffff;stroke-width:1.60206902;stroke-linecap:butt;stroke-linejoin:miter;stroke-miterlimit:4;stroke-opacity:1;stroke-dasharray:none" d="m 1269.4718,455.24752 9.2214,0" id="path6225" inkscape:connector-curvature="0"/>
        <path style="fill:#ffffff;stroke:#ffffff;stroke-width:1.60206902;stroke-linecap:butt;stroke-linejoin:miter;stroke-miterlimit:4;stroke-opacity:1;stroke-dasharray:none" d="m 1269.4718,446.34083 9.2214,0" id="path6227" inkscape:connector-curvature="0"/>
        <path style="fill:#ffffff;stroke:#ffffff;stroke-width:1.60206902;stroke-linecap:butt;stroke-linejoin:miter;stroke-miterlimit:4;stroke-opacity:1;stroke-dasharray:none" d="m 1269.4718,437.43414 9.2214,0" id="path6229" inkscape:connector-curvature="0"/>
        <path style="fill:#ffffff;stroke:#ffffff;stroke-width:1.60206902;stroke-linecap:butt;stroke-linejoin:miter;stroke-miterlimit:4;stroke-opacity:1;stroke-dasharray:none" d="m 1269.4718,481.96759 9.2214,0" id="path6231" inkscape:connector-curvature="0"/>
        <path style="fill:#ffffff;stroke:#ffffff;stroke-width:1.60206902;stroke-linecap:butt;stroke-linejoin:miter;stroke-miterlimit:4;stroke-opacity:1;stroke-dasharray:none" d="m 1269.4718,490.87428 9.2214,0" id="path6233" inkscape:connector-curvature="0"/>
        <path style="fill:#ffffff;stroke:#ffffff;stroke-width:1.60206902;stroke-linecap:butt;stroke-linejoin:miter;stroke-miterlimit:4;stroke-opacity:1;stroke-dasharray:none" d="m 1269.4718,499.78097 9.2214,0" id="path6235" inkscape:connector-curvature="0"/>
        <path style="fill:#ffffff;stroke:#ffffff;stroke-width:1.60206902;stroke-linecap:butt;stroke-linejoin:miter;stroke-miterlimit:4;stroke-opacity:1;stroke-dasharray:none" d="m 1269.4718,508.68765 9.2214,0" id="path6237" inkscape:connector-curvature="0"/>
        <path transform="matrix(0.9064649,0,0,0.63116144,124.11486,185.19228)" d="m 1290.3574,366.4209 c 0,5.30176 -4.6561,9.59968 -10.3996,9.59968 -5.7436,0 -10.3997,-4.29792 -10.3997,-9.59968 0,-5.30176 4.6561,-9.59969 10.3997,-9.59969 5.7435,0 10.3996,4.29793 10.3996,9.59969 z" sodipodi:ry="9.5996838" sodipodi:rx="10.399657" sodipodi:cy="366.4209" sodipodi:cx="1279.9578" id="path6239" style="opacity:0.74519228;fill:#ffffff;fill-opacity:1;stroke:none;filter:url(#filter6165)" sodipodi:type="arc"/>
        <path id="path6241" d="m 1285.125,410.26843 c -9.7188,0 -17.5625,7.81243 -17.5625,17.53125 l 0,102.5625 c 0,0.0319 -2e-4,0.0619 0,0.0937 -9.43,5.87376 -15.7187,16.32234 -15.7187,28.25 0,18.37643 14.9048,33.28125 33.2812,33.28125 18.3764,0 33.2812,-14.90482 33.2812,-33.28125 0,-11.93724 -6.3073,-22.3789 -15.75,-28.25 2e-4,-0.0318 0,-0.0619 0,-0.0937 l 0,-102.5625 c 0,-9.71882 -7.8124,-17.53125 -17.5312,-17.53125 z" style="fill:none;stroke:#0080ff;stroke-width:3;stroke-miterlimit:4;stroke-opacity:1;stroke-dasharray:none;display:inline" inkscape:connector-curvature="0"/>
      </g>
    </g>
  </g>
  <metadata>
    <rdf:RDF>
      <cc:Work>
        <dc:format>image/svg+xml</dc:format>
        <dc:type rdf:resource="http://purl.org/dc/dcmitype/StillImage"/>
        <cc:license rdf:resource="http://creativecommons.org/licenses/publicdomain/"/>
        <dc:publisher>
          <cc:Agent rdf:about="http://openclipart.org/">
            <dc:title>Open Clip Art Library</dc:title>
          </cc:Agent>
        </dc:publisher>
        <dc:title>Pixzain Thermometer</dc:title>
        <dc:date>2010-09-16T12:55:52</dc:date>
        <dc:description>A simple blue thermometer</dc:description>
        <dc:source>http://openclipart.org/detail/85069/pixzain-thermometer-by-pixzain</dc:source>
        <dc:creator>
          <cc:Agent>
            <dc:title>pixzain</dc:title>
          </cc:Agent>
        </dc:creator>
        <dc:subject>
          <rdf:Bag>
            <rdf:li>Termometro</rdf:li>
            <rdf:li>Thermometer</rdf:li>
            <rdf:li>clip art</rdf:li>
            <rdf:li>clipart</rdf:li>
            <rdf:li>temperature</rdf:li>
          </rdf:Bag>
        </dc:subject>
      </cc:Work>
      <cc:License rdf:about="http://creativecommons.org/licenses/publicdomain/">
        <cc:permits rdf:resource="http://creativecommons.org/ns#Reproduction"/>
        <cc:permits rdf:resource="http://creativecommons.org/ns#Distribution"/>
        <cc:permits rdf:resource="http://creativecommons.org/ns#DerivativeWorks"/>
      </cc:License>
    </rdf:RDF>
  </metadata>
</svg>
